<?xml version="1.0" encoding="utf-8" standalone="no"?>
<!DOCTYPE svg PUBLIC "-//W3C//DTD SVG 1.1//EN"
  "http://www.w3.org/Graphics/SVG/1.1/DTD/svg11.dtd">
<svg xmlns:xlink="http://www.w3.org/1999/xlink" width="617.04pt" height="352.16pt" viewBox="0 0 617.04 352.16" xmlns="http://www.w3.org/2000/svg" version="1.1">
 <metadata>
  <rdf:RDF xmlns:dc="http://purl.org/dc/elements/1.1/" xmlns:cc="http://creativecommons.org/ns#" xmlns:rdf="http://www.w3.org/1999/02/22-rdf-syntax-ns#">
   <cc:Work>
    <dc:type rdf:resource="http://purl.org/dc/dcmitype/StillImage"/>
    <dc:date>2026-06-28T16:24:44.985435</dc:date>
    <dc:format>image/svg+xml</dc:format>
    <dc:creator>
     <cc:Agent>
      <dc:title>Matplotlib v3.11.0, https://matplotlib.org/</dc:title>
     </cc:Agent>
    </dc:creator>
   </cc:Work>
  </rdf:RDF>
 </metadata>
 <defs>
  <style type="text/css">*{stroke-linejoin: round; stroke-linecap: butt}</style>
 </defs>
 <g id="figure_1">
  <g id="patch_1">
   <path d="M 0 352.16 
L 617.04 352.16 
L 617.04 0 
L 0 0 
z
" style="fill: #ffffff"/>
  </g>
  <g id="axes_1">
   <g id="patch_2">
    <path d="M 22.08 330.08 
L 514.88 330.08 
L 514.88 22.08 
L 22.08 22.08 
L 22.08 330.08 
z
" clip-path="url(#pd604fca79e)" style="fill: none; stroke-dasharray: 9,9; stroke-dashoffset: 0; stroke: #444444; stroke-width: 1.5; stroke-linejoin: miter"/>
   </g>
   <g id="line2d_1">
    <path d="M 567.24 302.36 
L 487.16 302.36 
L 49.8 302.36 
L 49.8 49.8 
L 487.16 49.8 
L 487.16 246.92 
L 105.24 246.92 
L 105.24 105.24 
L 431.72 105.24 
L 431.72 191.48 
L 160.68 191.48 
L 160.68 160.68 
L 376.28 160.68 
" clip-path="url(#pd604fca79e)" style="fill: none; stroke: #cf2626; stroke-width: 16; stroke-linecap: round"/>
   </g>
   <g id="line2d_2">
    <path d="M 567.24 302.36 
L 487.16 302.36 
L 49.8 302.36 
L 49.8 49.8 
L 487.16 49.8 
L 487.16 246.92 
L 105.24 246.92 
L 105.24 105.24 
L 431.72 105.24 
L 431.72 191.48 
L 160.68 191.48 
L 160.68 160.68 
L 376.28 160.68 
" clip-path="url(#pd604fca79e)" style="fill: none; stroke: #ff7d7d; stroke-width: 10; stroke-linecap: round"/>
   </g>
   <g id="line2d_3">
    <path d="M 539.52 274.64 
L 459.44 274.64 
L 77.52 274.64 
L 77.52 77.52 
L 459.44 77.52 
L 459.44 219.2 
L 132.96 219.2 
L 132.96 132.96 
L 404 132.96 
L 404 163.76 
L 188.4 163.76 
" clip-path="url(#pd604fca79e)" style="fill: none; stroke: #cf2626; stroke-width: 16; stroke-linecap: round"/>
   </g>
   <g id="line2d_4">
    <path d="M 539.52 274.64 
L 459.44 274.64 
L 77.52 274.64 
L 77.52 77.52 
L 459.44 77.52 
L 459.44 219.2 
L 132.96 219.2 
L 132.96 132.96 
L 404 132.96 
L 404 163.76 
L 188.4 163.76 
" clip-path="url(#pd604fca79e)" style="fill: none; stroke: #ff7d7d; stroke-width: 10; stroke-linecap: round"/>
   </g>
  </g>
 </g>
 <defs>
  <clipPath id="pd604fca79e">
   <rect x="3.6" y="3.6" width="609.84" height="344.96"/>
  </clipPath>
 </defs>
</svg>
