<?xml version="1.0" encoding="utf-8" standalone="no"?>
<!DOCTYPE svg PUBLIC "-//W3C//DTD SVG 1.1//EN"
  "http://www.w3.org/Graphics/SVG/1.1/DTD/svg11.dtd">
<svg xmlns:xlink="http://www.w3.org/1999/xlink" width="615.6pt" height="350.72pt" viewBox="0 0 615.6 350.72" xmlns="http://www.w3.org/2000/svg" version="1.1">
 <metadata>
  <rdf:RDF xmlns:dc="http://purl.org/dc/elements/1.1/" xmlns:cc="http://creativecommons.org/ns#" xmlns:rdf="http://www.w3.org/1999/02/22-rdf-syntax-ns#">
   <cc:Work>
    <dc:type rdf:resource="http://purl.org/dc/dcmitype/StillImage"/>
    <dc:date>2026-06-28T16:30:20.433703</dc:date>
    <dc:format>image/svg+xml</dc:format>
    <dc:creator>
     <cc:Agent>
      <dc:title>Matplotlib v3.11.0, https://matplotlib.org/</dc:title>
     </cc:Agent>
    </dc:creator>
   </cc:Work>
  </rdf:RDF>
 </metadata>
 <defs>
  <style type="text/css">*{stroke-linejoin: round; stroke-linecap: butt}</style>
 </defs>
 <g id="figure_1">
  <g id="patch_1">
   <path d="M 0 350.72 
L 615.6 350.72 
L 615.6 0 
L 0 0 
z
" style="fill: #ffffff"/>
  </g>
  <g id="axes_1">
   <g id="patch_2">
    <path d="M 21.36 329.36 
L 514.16 329.36 
L 514.16 21.36 
L 21.36 21.36 
L 21.36 329.36 
z
" clip-path="url(#p5e9f14c0bf)" style="fill: none; stroke-dasharray: 11.2,11.2; stroke-dashoffset: 0; stroke: #555555; stroke-width: 1.6; stroke-linejoin: miter"/>
   </g>
   <g id="line2d_1">
    <path d="M 566.52 301.64 
L 486.44 301.64 
L 49.08 301.64 
L 49.08 49.08 
L 486.44 49.08 
L 486.44 246.2 
L 104.52 246.2 
L 104.52 104.52 
L 431 104.52 
L 431 190.76 
L 159.96 190.76 
L 159.96 159.96 
L 375.56 159.96 
L 403.28 159.96 
L 403.28 163.04 
L 132.24 163.04 
L 132.24 132.24 
L 458.72 132.24 
L 458.72 218.48 
L 76.8 218.48 
L 76.8 76.8 
L 458.72 76.8 
L 458.72 273.92 
L 566.52 273.92 
" clip-path="url(#p5e9f14c0bf)" style="fill: none; stroke: #d82323; stroke-width: 18; stroke-linecap: round"/>
   </g>
   <g id="line2d_2">
    <path d="M 566.52 301.64 
L 486.44 301.64 
L 49.08 301.64 
L 49.08 49.08 
L 486.44 49.08 
L 486.44 246.2 
L 104.52 246.2 
L 104.52 104.52 
L 431 104.52 
L 431 190.76 
L 159.96 190.76 
L 159.96 159.96 
L 375.56 159.96 
L 403.28 159.96 
L 403.28 163.04 
L 132.24 163.04 
L 132.24 132.24 
L 458.72 132.24 
L 458.72 218.48 
L 76.8 218.48 
L 76.8 76.8 
L 458.72 76.8 
L 458.72 273.92 
L 566.52 273.92 
" clip-path="url(#p5e9f14c0bf)" style="fill: none; stroke: #f77777; stroke-width: 11; stroke-linecap: round"/>
   </g>
  </g>
 </g>
 <defs>
  <clipPath id="p5e9f14c0bf">
   <rect x="2.88" y="2.88" width="609.84" height="344.96"/>
  </clipPath>
 </defs>
</svg>
