<?xml version="1.0" encoding="utf-8" standalone="no"?>
<!DOCTYPE svg PUBLIC "-//W3C//DTD SVG 1.1//EN"
  "http://www.w3.org/Graphics/SVG/1.1/DTD/svg11.dtd">
<svg xmlns:xlink="http://www.w3.org/1999/xlink" width="642.92pt" height="374.96pt" viewBox="0 0 642.92 374.96" xmlns="http://www.w3.org/2000/svg" version="1.1">
 <metadata>
  <rdf:RDF xmlns:dc="http://purl.org/dc/elements/1.1/" xmlns:cc="http://creativecommons.org/ns#" xmlns:rdf="http://www.w3.org/1999/02/22-rdf-syntax-ns#">
   <cc:Work>
    <dc:type rdf:resource="http://purl.org/dc/dcmitype/StillImage"/>
    <dc:date>2026-06-28T16:18:32.766760</dc:date>
    <dc:format>image/svg+xml</dc:format>
    <dc:creator>
     <cc:Agent>
      <dc:title>Matplotlib v3.11.0, https://matplotlib.org/</dc:title>
     </cc:Agent>
    </dc:creator>
   </cc:Work>
  </rdf:RDF>
 </metadata>
 <defs>
  <style type="text/css">*{stroke-linejoin: round; stroke-linecap: butt}</style>
 </defs>
 <g id="figure_1">
  <g id="patch_1">
   <path d="M 0 374.96 
L 642.92 374.96 
L 642.92 0 
L 0 0 
z
" style="fill: #ffffff"/>
  </g>
  <g id="axes_1">
   <g id="patch_2">
    <path d="M 33.48 341.48 
L 526.28 341.48 
L 526.28 33.48 
L 33.48 33.48 
L 33.48 341.48 
z
" clip-path="url(#p0c4fc9d4a7)" style="fill: none; stroke-dasharray: 10.8,10.8; stroke-dashoffset: 0; stroke: #333333; stroke-width: 1.8; stroke-linejoin: miter"/>
   </g>
   <g id="line2d_1">
    <path d="M 609.44 308.216 
L 493.016 308.216 
L 66.744 308.216 
L 66.744 66.744 
L 493.016 66.744 
L 493.016 252.776 
L 122.184 252.776 
L 122.184 122.184 
L 437.576 122.184 
L 437.576 197.336 
L 177.624 197.336 
L 177.624 177.624 
L 382.136 177.624 
L 205.344 177.624 
L 205.344 169.616 
L 409.856 169.616 
L 409.856 149.904 
L 149.904 149.904 
L 149.904 225.056 
L 465.296 225.056 
L 465.296 94.464 
L 94.464 94.464 
L 94.464 280.496 
L 465.296 280.496 
L 609.44 280.496 
" clip-path="url(#p0c4fc9d4a7)" style="fill: none; stroke: #c82424; stroke-width: 17; stroke-linecap: round"/>
   </g>
   <g id="line2d_2">
    <path d="M 609.44 308.216 
L 493.016 308.216 
L 66.744 308.216 
L 66.744 66.744 
L 493.016 66.744 
L 493.016 252.776 
L 122.184 252.776 
L 122.184 122.184 
L 437.576 122.184 
L 437.576 197.336 
L 177.624 197.336 
L 177.624 177.624 
L 382.136 177.624 
L 205.344 177.624 
L 205.344 169.616 
L 409.856 169.616 
L 409.856 149.904 
L 149.904 149.904 
L 149.904 225.056 
L 465.296 225.056 
L 465.296 94.464 
L 94.464 94.464 
L 94.464 280.496 
L 465.296 280.496 
L 609.44 280.496 
" clip-path="url(#p0c4fc9d4a7)" style="fill: none; stroke: #ff6b6b; stroke-width: 12; stroke-linecap: round"/>
   </g>
  </g>
 </g>
 <defs>
  <clipPath id="p0c4fc9d4a7">
   <rect x="5.76" y="5.76" width="631.4" height="363.44"/>
  </clipPath>
 </defs>
</svg>
